<svg data-v-0dd9719b="" version="1.0" xmlns="http://www.w3.org/2000/svg" xmlns:xlink="http://www.w3.org/1999/xlink" width="100%" height="100%" viewBox="0 0 340.000000 250.000000" preserveAspectRatio="xMidYMid meet" color-interpolation-filters="sRGB" style="margin: auto;"> <rect data-v-0dd9719b="" x="0" y="0" width="100%" height="100%" fill="#fff" fill-opacity="1" class="background"></rect> <rect data-v-0dd9719b="" x="0" y="0" width="100%" height="100%" fill="url(#watermark)" fill-opacity="1" class="watermarklayer"></rect> <g data-v-0dd9719b="" fill="#333" class="icon-text-wrapper icon-svg-group iconsvg" transform="translate(80.76000213623047,93.43002510075668)"><g class="iconsvg-imagesvg" transform="translate(0,0)"><g><rect fill="#333" fill-opacity="0" stroke-width="2" x="0" y="0" width="60" height="63.13994969850674" class="image-rect"></rect> <svg x="0" y="0" width="60" height="63.13994969850674" filtersec="colorsb4560798988" class="image-svg-svg primary" style="overflow: visible;"><svg xmlns="http://www.w3.org/2000/svg" viewBox="-0.02771943435072899 0.0012540221214294434 143.51670837402344 151.0276641845703"><path d="M.06 74.93c0-11 .09-22.07-.06-33.11a5.33 5.33 0 0 1 3-5.35c8.8-5 17.52-10.13 26.26-15.23Q46.72 11.07 64.16.86c2.52-1.48 3.14-1.14 3.15 1.75v23.46a7.65 7.65 0 0 0 0 2.09c1 3.29-.73 4.87-3.4 6.4-7 4-13.71 8.34-20.65 12.36-3.86 2.24-7.6 4.68-11.51 6.84A4.15 4.15 0 0 0 29.42 58q.07 32.68 0 65.38c0 5.35-.08 5.4-4.68 2.74-7.43-4.29-14.83-8.63-22.3-12.85A4.15 4.15 0 0 1 0 109.08C.11 97.7.07 86.31.06 74.93z" fill="#303e8f"></path><path d="M78.05 75.35v-71-2.51c0-1.6.62-2 2.09-1.12 8 4.61 16 9.2 24 13.68 1.82 1 2 2.4 2 4.17v110a50.69 50.69 0 0 1-.36 5.64 2.82 2.82 0 0 1-1.48 2.35l-16.47 9.55-7.6 4.4c-1.61.92-2.08.67-2.17-1.18V75.35z" fill="#fb941c"></path><path d="M67.27 97.7v48.8a20.76 20.76 0 0 1 0 2.09c-.13 1.26-.82 1.55-1.88.93q-9.78-5.67-19.55-11.34c-1.38-.81-2.8-1.55-4.2-2.34a2.8 2.8 0 0 1-1.53-2.72q0-33.5-.12-67c0-1.6.43-3.18.22-4.8-.12-.91.6-1.31 1.29-1.71 4-2.32 8.09-4.68 12.13-7l10.69-6.16c2.81-1.61 3-1.5 3 1.85v12.54q-.06 18.43-.05 36.86z" fill="#303e8f"></path><path d="M117 75.51V25.64c0-3.38.27-3.57 3.19-2 7.14 3.82 14.25 7.68 21.41 11.47a3 3 0 0 1 1.88 2.89v74a3.19 3.19 0 0 1-1.73 3.08c-7.3 4.12-14.56 8.28-21.84 12.42-.7.4-1.36 1.26-2.25.79s-.61-1.63-.61-2.49q-.05-25.14-.05-50.29z" fill="#fb941c"></path></svg></svg> <!----></g></g> <g transform="translate(67,5.309974670410156)"><g data-gra="path-name" fill-rule="" class="tp-name iconsvg-namesvg"><g transform="scale(1)"><g><path d="M15.15 5.66Q11.18 5.66 7.8 4.32 4.42 2.99 2.34 0.29 0.26-2.41 0.26-6.24L0.26-6.24Q0.26-11.05 3.25-13.16 6.24-15.28 10.27-15.28L10.27-15.28Q8.19-13.13 7.12-10.79 6.04-8.45 6.04-6.24L6.04-6.24Q6.04-2.73 8.74-0.26 11.44 2.21 16.25 2.21L16.25 2.21Q19.3 2.21 22.07 1.2 24.83 0.2 26.55-1.82 28.28-3.83 28.28-6.57L28.28-6.57Q28.28-8.97 26.91-10.86 25.55-12.74 23.56-14.11 21.58-15.47 18.2-17.29L18.2-17.29Q14.63-19.24 12.42-20.73 10.21-22.23 8.71-24.41 7.21-26.59 7.21-29.45L7.21-29.45Q7.21-33.15 9.62-37.25 12.03-41.34 16.38-44.07 20.73-46.8 26.13-46.8L26.13-46.8Q34.26-46.8 34.26-39.98L34.26-39.98Q34.26-36.66 32.66-32.6 31.07-28.54 29.05-25.41L29.05-25.41Q26.2-26 26.2-28.73L26.2-28.73Q26.2-29.96 26.68-31.56 27.17-33.15 28.08-35.36L28.08-35.36Q28.99-37.83 29.45-39.26 29.9-40.69 29.9-41.86L29.9-41.86Q29.9-43.09 29.15-43.71 28.41-44.33 26.46-44.33L26.46-44.33Q22.55-44.33 19.3-42.12 16.05-39.91 14.14-36.76 12.22-33.61 12.22-30.94L12.22-30.94Q12.22-28.99 13.39-27.43 14.56-25.87 16.35-24.73 18.14-23.6 21.19-21.97L21.19-21.97Q25.03-19.89 27.33-18.33 29.64-16.77 31.3-14.3 32.95-11.83 32.95-8.38L32.95-8.38Q32.95-4.09 30.39-0.91 27.82 2.27 23.69 3.97 19.57 5.66 15.15 5.66L15.15 5.66ZM52 5.66Q48.04 5.66 44.66 4.32 41.28 2.99 39.2 0.29 37.12-2.41 37.12-6.24L37.12-6.24Q37.12-11.05 40.11-13.16 43.1-15.28 47.13-15.28L47.13-15.28Q45.05-13.13 43.97-10.79 42.9-8.45 42.9-6.24L42.9-6.24Q42.9-2.73 45.6-0.26 48.3 2.21 53.11 2.21L53.11 2.21Q56.16 2.21 58.92 1.2 61.69 0.2 63.41-1.82 65.13-3.83 65.13-6.57L65.13-6.57Q65.13-8.97 63.77-10.86 62.4-12.74 60.42-14.11 58.44-15.47 55.06-17.29L55.06-17.29Q51.48-19.24 49.27-20.73 47.06-22.23 45.57-24.41 44.07-26.59 44.07-29.45L44.07-29.45Q44.07-33.15 46.48-37.25 48.88-41.34 53.23-44.07 57.59-46.8 62.99-46.8L62.99-46.8Q71.11-46.8 71.11-39.98L71.11-39.98Q71.11-36.66 69.52-32.6 67.93-28.54 65.91-25.41L65.91-25.41Q63.05-26 63.05-28.73L63.05-28.73Q63.05-29.96 63.54-31.56 64.03-33.15 64.94-35.36L64.94-35.36Q65.84-37.83 66.3-39.26 66.76-40.69 66.76-41.86L66.76-41.86Q66.76-43.09 66.01-43.71 65.26-44.33 63.31-44.33L63.31-44.33Q59.41-44.33 56.16-42.12 52.91-39.91 50.99-36.76 49.08-33.61 49.08-30.94L49.08-30.94Q49.08-28.99 50.25-27.43 51.42-25.87 53.2-24.73 54.99-23.6 58.05-21.97L58.05-21.97Q61.88-19.89 64.19-18.33 66.5-16.77 68.15-14.3 69.81-11.83 69.81-8.38L69.81-8.38Q69.81-4.09 67.24-0.91 64.68 2.27 60.55 3.97 56.42 5.66 52 5.66L52 5.66ZM71.5 5.72Q71.83 1.95 74.65 0.78 77.48-0.39 82.68-0.39L82.68-0.39Q84.56-4.42 86.19-10.6 87.81-16.77 90.22-27.5L90.22-27.5Q90.48-28.6 91.68-34 92.89-39.39 93.86-42.19L93.86-42.19Q89.18-42.12 85.77-41.73 82.36-41.34 78.45-40.63L78.45-40.63Q79.11-43.88 82.52-45.3 85.93-46.73 92.89-46.73L92.89-46.73Q100.69-46.73 111.74-45.3L111.74-45.3Q109.78-43.42 107.93-42.84 106.08-42.25 104.2-42.25L104.2-42.25Q99.25-42.25 97.18-42.19L97.18-42.19 96.78-40.23 95.16-31.2Q94.19-25.61 93.05-19.63 91.91-13.65 91.13-10.66L91.13-10.66Q89.18-2.86 86.45-0.26L86.45-0.26Q89.7 0 91.39 0.2L91.39 0.2Q97.37 0.84 101.14 0.91L101.14 0.91Q97.31 4.55 92.37 4.55L92.37 4.55Q83.33 4.55 79.79 4.75 76.25 4.94 71.5 5.72L71.5 5.72Z" transform="translate(-0.25999999046325684, 46.79999923706055)"></path></g> <!----> <!----> <!----> <!----> <!----> <!----> <!----></g></g> <!----></g></g><defs v-gra="od"></defs></svg>